<svg xmlns="http://www.w3.org/2000/svg" viewBox="0 0 31.61 31.61"><defs><style>.cls-1{fill:#fff;}</style></defs><title>Asset 3logo</title><g id="Layer_2" data-name="Layer 2"><g id="Layer_1-2" data-name="Layer 1"><path id="f" class="cls-1" d="M17.45,26.37V16.7h3.26l.49-3.78H17.45V10.51c0-1.1.31-1.84,1.87-1.84h2V5.29a28.14,28.14,0,0,0-2.91-.15c-2.88,0-4.85,1.76-4.85,5v2.79H10.3V16.7h3.25v9.67Z"/><path class="cls-1" d="M15.8,31.61a15.81,15.81,0,1,1,15.81-15.8A15.82,15.82,0,0,1,15.8,31.61Zm0-30.38A14.58,14.58,0,1,0,30.38,15.81,14.59,14.59,0,0,0,15.8,1.23Z"/></g></g></svg>