<svg xmlns="http://www.w3.org/2000/svg" viewBox="0 0 167.22 72.83"><defs><style>.cls-1{fill:#fff;}</style></defs><title>Asset 144</title><g id="Layer_2" data-name="Layer 2"><g id="Layer_1-2" data-name="Layer 1"><path class="cls-1" d="M46.88,30.26a11.53,11.53,0,0,0-2.41-6.11A15.46,15.46,0,0,0,27.6,19.2c-4.53,1.48-7.86,4.32-9.22,9-1.46,5.05.5,10,5.14,13.24a1.31,1.31,0,0,1,.6,1.74c-.32,1.06-.5,2.18-.78,3.44,1.53-.95,2.82-1.81,4.16-2.57A2.64,2.64,0,0,1,29,43.81c1.39.11,2.77.32,4.28.51a11.86,11.86,0,0,1,3.68-10A14.79,14.79,0,0,1,46.88,30.26Zm-19.64.09a1.71,1.71,0,0,1-1.7-1.77,1.74,1.74,0,0,1,1.8-1.68,1.78,1.78,0,0,1,1.72,1.78A1.75,1.75,0,0,1,27.24,30.35ZM38.36,26.9a1.73,1.73,0,1,1,0,3.46,1.74,1.74,0,0,1-1.79-1.7A1.79,1.79,0,0,1,38.36,26.9Z"/><path class="cls-1" d="M57.34,36.36c-3.88-5-11.93-6.19-17.42-2.59-6.18,4-6.94,11.62-1.6,16.56a12.35,12.35,0,0,0,10,3.26c1.25-.12,2.5-.81,3.7-.69s2.32,1,3.54,1.49a4,4,0,0,0-.23-.91c-.77-1.39-.34-2.26.85-3.32A9.9,9.9,0,0,0,57.34,36.36ZM41.62,40.88a1.46,1.46,0,0,1-1.45-1.39A1.47,1.47,0,0,1,41.63,38a1.44,1.44,0,1,1,0,2.88Zm9,0a1.41,1.41,0,0,1-1.41-1.49,1.42,1.42,0,1,1,2.84.13A1.4,1.4,0,0,1,50.6,40.87Z"/><path class="cls-1" d="M144.33,41.23h0c-1,.33-2,.6-3,.84l-.21,0h0c-.81.19-1.59.34-2.36.46l-.66.1h0l-.57.08h0l-.72.08-.9.07-.63,0h0l-.54,0h0c-.28,0-.56,0-.84,0h0c-.38,0-.76,0-1.13,0h-.43l-.84-.07h-.17c-.34,0-.67-.07-1-.12h0l-.34,0c-.74-.11-1.44-.24-2.11-.4h0l-.73-.18-.27-.08h0l-.65-.19h0l-1-.36-.07,0c-.32-.11-.63-.24-.93-.36l-.08,0-.87-.39,0,0-.84-.42h0a20.56,20.56,0,0,1-4.14-2.83l0,0-.28-.26,0,0-.21-.2,0,0-.15-.14,0,0-.09-.09v0l0,0h0c.38.22.77.42,1.17.61l.35.15c.3.14.61.27.92.39l.33.13c.41.15.82.29,1.24.41l.19.05c.37.11.73.2,1.1.29l.39.08c.34.07.68.14,1,.19l.3.06,1.32.17.28,0,1.07.09.39,0c.38,0,.76,0,1.15,0h.19c.45,0,.89,0,1.34,0h.3l1.08-.06.32,0c.9-.07,1.78-.16,2.65-.28l.24,0,1.12-.17.18,0c.87-.15,1.72-.32,2.53-.49l.13,0,1.17-.27h0c2.24-.53,4.15-1.14,5.53-1.61h0l.13,0,.45-.16.16,0,.49-.18a18,18,0,0,0-35.43-3.56c19.1-7.1,28.78,4.09,28.78,4.09-10.05-5.75-25.19-.73-29.28.81A18,18,0,0,0,146,40.64C145.44,40.85,144.88,41.05,144.33,41.23Z"/><path class="cls-1" d="M167.22,36.42a36.43,36.43,0,0,1-62.17,25.76L86.83,44l-2.4-2.4L57.85,15a30.33,30.33,0,1,0,0,42.89L76.09,39.64l4.3,4.3L62.16,62.18a36.43,36.43,0,1,1,0-51.51L80.38,28.89l7.53,7.53.83.83,2.39,2.4,18.23,18.22A30.33,30.33,0,1,0,130.8,6.09,30.06,30.06,0,0,0,109.36,15L91.15,33.2l-4.32-4.31,18.22-18.22a36.42,36.42,0,0,1,62.17,25.75Z"/></g></g></svg>