<svg xmlns="http://www.w3.org/2000/svg" xmlns:xlink="http://www.w3.org/1999/xlink" viewBox="0 0 322.77 110.71"><defs><style>.cls-1{fill:#ec2227;}.cls-2{fill:#fff;}.cls-3{fill:url(#radial-gradient);}.cls-4{fill:url(#linear-gradient);}.cls-5{fill:url(#linear-gradient-2);}.cls-6{fill:url(#linear-gradient-3);}.cls-7{fill:url(#radial-gradient-2);}</style><radialGradient id="radial-gradient" cx="38.54" cy="-140.16" r="22.45" gradientTransform="translate(148.62 190.87) scale(0.97 0.97)" gradientUnits="userSpaceOnUse"><stop offset="0" stop-color="#951f21"/><stop offset="0.75" stop-color="#e7262b"/><stop offset="0.83" stop-color="#f0777b"/><stop offset="0.91" stop-color="#f8c0c2"/><stop offset="0.97" stop-color="#fdeeee"/><stop offset="1" stop-color="#fff"/></radialGradient><linearGradient id="linear-gradient" x1="5561.07" y1="5659.41" x2="5562.47" y2="5659.41" gradientTransform="matrix(0, -28, -28, 0, 158649.38, 155785.03)" gradientUnits="userSpaceOnUse"><stop offset="0" stop-color="#ed6825"/><stop offset="0.5" stop-color="#e7262b"/><stop offset="1" stop-color="#a41e24"/></linearGradient><linearGradient id="linear-gradient-2" x1="5080.35" y1="5144.39" x2="5081.86" y2="5144.39" gradientTransform="matrix(0, 16, 16, 0, -82124.41, -81248.15)" gradientUnits="userSpaceOnUse"><stop offset="0" stop-color="#f1947a"/><stop offset="1" stop-color="#e02429"/></linearGradient><linearGradient id="linear-gradient-3" x1="166.2" y1="65.69" x2="205.52" y2="65.69" gradientTransform="matrix(1, 0, 0, 1, 0, 0)" xlink:href="#linear-gradient"/><radialGradient id="radial-gradient-2" cx="191.24" cy="59.6" r="14.11" gradientUnits="userSpaceOnUse"><stop offset="0" stop-color="#fff"/><stop offset="0.21" stop-color="#f7f7f7"/><stop offset="0.53" stop-color="#e2e2e2"/><stop offset="0.92" stop-color="silver"/><stop offset="1" stop-color="#b8b8b8"/></radialGradient></defs><title>Asset 1022</title><g id="Layer_2" data-name="Layer 2"><g id="Layer_1-2" data-name="Layer 1"><path class="cls-1" d="M285.61,110.71H37.16A37.16,37.16,0,0,1,0,73.55V0H322.77V73.55A37.16,37.16,0,0,1,285.61,110.71Z"/><path class="cls-2" d="M240.36,84.45a3.48,3.48,0,0,0-2.35-.72,4.39,4.39,0,0,0-2.09.46,4.06,4.06,0,0,0-1.35,1.25,5.33,5.33,0,0,0-.71,1.76,9.29,9.29,0,0,0-.2,2.06,7.5,7.5,0,0,0,.24,1.9,5.31,5.31,0,0,0,.72,1.64,4.14,4.14,0,0,0,5.86.66,4.09,4.09,0,0,0,1.17-2.53l2.37,0a6.47,6.47,0,0,1-1.93,4,6.1,6.1,0,0,1-4.25,1.43A7.3,7.3,0,0,1,235,95.9a5.72,5.72,0,0,1-2.07-1.46,6.41,6.41,0,0,1-1.27-2.28,9.22,9.22,0,0,1-.43-2.89,10,10,0,0,1,.39-3,7,7,0,0,1,1.22-2.4,5.74,5.74,0,0,1,2.08-1.62,6.78,6.78,0,0,1,2.91-.61,9,9,0,0,1,2.25.28,5.69,5.69,0,0,1,1.86.87,4.85,4.85,0,0,1,1.33,1.51,5.48,5.48,0,0,1,.66,2.16h-2.39A3.57,3.57,0,0,0,240.36,84.45Z"/><path class="cls-2" d="M247.51,76.59,247.62,96H245.3l-.1-19.46Z"/><path class="cls-2" d="M249.37,86.09a6.28,6.28,0,0,1,1.3-2.35,6.06,6.06,0,0,1,2.14-1.58,7.92,7.92,0,0,1,5.9,0,6.27,6.27,0,0,1,2.14,1.56A6.41,6.41,0,0,1,262.17,86a9.09,9.09,0,0,1,.46,2.9,9.24,9.24,0,0,1-.42,2.88,6.74,6.74,0,0,1-1.3,2.35,6.25,6.25,0,0,1-2.12,1.56,7.34,7.34,0,0,1-3,.57,7.19,7.19,0,0,1-3-.54,5.92,5.92,0,0,1-2.16-1.54,6.72,6.72,0,0,1-1.32-2.32A9.6,9.6,0,0,1,249,89,9.7,9.7,0,0,1,249.37,86.09Zm2.38,5.16a4.9,4.9,0,0,0,1,1.66,4,4,0,0,0,1.4,1,4.44,4.44,0,0,0,3.41,0,4,4,0,0,0,1.39-1,4.6,4.6,0,0,0,.93-1.66,6.92,6.92,0,0,0,.34-2.28,7.16,7.16,0,0,0-.36-2.27,4.62,4.62,0,0,0-.95-1.67,3.84,3.84,0,0,0-1.41-1,4.19,4.19,0,0,0-3.4,0,4.2,4.2,0,0,0-1.41,1,5.11,5.11,0,0,0-.92,1.68,6.72,6.72,0,0,0-.32,2.28A6.9,6.9,0,0,0,251.75,91.25Z"/><path class="cls-2" d="M266.23,92.78a2.55,2.55,0,0,0,.87.83,3.83,3.83,0,0,0,1.2.45,7,7,0,0,0,1.38.13,7.7,7.7,0,0,0,1.14-.09,4.14,4.14,0,0,0,1.1-.31,2,2,0,0,0,.83-.64,1.69,1.69,0,0,0,.32-1.08,1.52,1.52,0,0,0-.68-1.35,5.88,5.88,0,0,0-1.71-.75c-.69-.18-1.43-.35-2.23-.5a11.8,11.8,0,0,1-2.23-.65,4.55,4.55,0,0,1-1.7-1.16,3.08,3.08,0,0,1-.69-2.13,3.37,3.37,0,0,1,.47-1.83,3.84,3.84,0,0,1,1.22-1.25,5.53,5.53,0,0,1,1.68-.71,7.44,7.44,0,0,1,1.87-.24,12.56,12.56,0,0,1,2.2.18,5.17,5.17,0,0,1,1.79.71,3.47,3.47,0,0,1,1.24,1.36,4.83,4.83,0,0,1,.56,2.13h-2.31a2.32,2.32,0,0,0-.36-1.12,2.21,2.21,0,0,0-.77-.72,3.24,3.24,0,0,0-1-.4,6.2,6.2,0,0,0-1.14-.11,7.51,7.51,0,0,0-1,.08,3.38,3.38,0,0,0-1,.3,1.9,1.9,0,0,0-.72.54,1.42,1.42,0,0,0-.26.9,1.36,1.36,0,0,0,.42,1,4,4,0,0,0,1.08.65,10.09,10.09,0,0,0,1.48.42l1.63.36a15.29,15.29,0,0,1,1.71.45,5.92,5.92,0,0,1,1.47.72,3.52,3.52,0,0,1,1.05,1.12,3.35,3.35,0,0,1,.4,1.69,4,4,0,0,1-.52,2.13,4.2,4.2,0,0,1-1.38,1.37,6,6,0,0,1-1.93.73,11.16,11.16,0,0,1-2.14.21,10,10,0,0,1-2.23-.22,6,6,0,0,1-1.89-.8,4,4,0,0,1-1.31-1.46,5.12,5.12,0,0,1-.56-2.22h2.31A2.79,2.79,0,0,0,266.23,92.78Z"/><path class="cls-2" d="M287.3,94.91a6.3,6.3,0,0,1-4,1.21,7.17,7.17,0,0,1-2.93-.52,5.73,5.73,0,0,1-2.09-1.52A6.52,6.52,0,0,1,277,91.75a11.9,11.9,0,0,1-.49-3,8.58,8.58,0,0,1,.48-2.93,7,7,0,0,1,1.37-2.33A6.28,6.28,0,0,1,280.47,82a6.38,6.38,0,0,1,2.65-.55,5.8,5.8,0,0,1,3.12.75,6.27,6.27,0,0,1,2,2,7.74,7.74,0,0,1,1.05,2.61,11.57,11.57,0,0,1,.25,2.69L279,89.5a5.35,5.35,0,0,0,.22,1.76,4.05,4.05,0,0,0,.79,1.46,3.93,3.93,0,0,0,1.4,1,4.87,4.87,0,0,0,2,.37,4.07,4.07,0,0,0,2.41-.69A3.3,3.3,0,0,0,287,91.35l2.28,0A5.64,5.64,0,0,1,287.3,94.91Zm-.6-9a4,4,0,0,0-.86-1.26,4.16,4.16,0,0,0-1.25-.84,4,4,0,0,0-1.6-.31,3.88,3.88,0,0,0-1.62.33,3.84,3.84,0,0,0-1.24.86,4.15,4.15,0,0,0-.8,1.27,4.39,4.39,0,0,0-.35,1.54l8.09,0A4.7,4.7,0,0,0,286.7,85.87Z"/><path class="cls-2" d="M293,81.68v3h.06a6.31,6.31,0,0,1,2.05-2.55,5.36,5.36,0,0,1,3.1-.78v2.46a6.81,6.81,0,0,0-2.36.39,3.63,3.63,0,0,0-1.58,1.14,4.35,4.35,0,0,0-.86,1.78,9.27,9.27,0,0,0-.26,2.41l0,6.27h-2.31l-.08-14.08Z"/><path class="cls-2" d="M119.78,97l-1.1-1.2V87.59h-4.16V97h-1.58l-1-1.2V86.55h8l1.3,1.38v9ZM113.15,85.5,112,84.19V82.86h8.11l1.22,1.26V85.5Z"/><path class="cls-2" d="M126,97V85.5h-2.35l-1.22-1.16V82.93h5.06l1,1.12V97Z"/><path class="cls-2" d="M140.15,96.86l-1.31-1.23V94.51h-4v2.42h-1.52l-1.16-1.22v-4h1.48l1.2,1.12v.58h4V89.77h-5.53l-1.16-1.16V82.93h8.18l1.17,1.12v3h-1.43l-1.15-1.12V85h-4v3.88h5.43l1.17,1.22v6.77Z"/><path class="cls-2" d="M137.86,81.26l-1-1.16V77h.9l1.12,1.19v3.11Z"/><path class="cls-2" d="M147.78,97l-1.41-1.27V87.59h-1.7V82.93h3l1.08,1V85.5h-2.35v1h1.27l1.12,1.3v4.78h.94l.68.72V97ZM145.9,81.26l-1.08-1.12V77.53h2.35v1h-1v2.06h1.71V75h1.3l1.18,1.16v5.1Zm3.66,12.13h-.8v2.89h.8Z"/><path class="cls-2" d="M154.31,85.5l-1.13-1.23V82.93h8.25l1,1.12V85.5ZM161,97.08l-1.08-1.2V87.42h-4.13v5h1l1.13,1.13v3.51h-3.63l-1-1.08V86.55h8l1.27,1.3v9.23Zm-4.56-4h-.65v3.18h.65Z"/><path class="cls-2" d="M171.89,96.86l-1.59-1.62-1.67,1.69h-3.11V87.85h-1V82.93h7.65V80.68h1.58l1.09,1.24V85.5h-9v1H167l1.16,1.3v7.64l.58.11L170.3,94l1.37,1.37h.57V87.59h1.57L175,88.87v8Z"/><path class="cls-2" d="M167.44,81.23l-1-1.16V77.5h8.21l1.05,1.16v2.57Zm5.72-2.93h-4.28v2.2h4.28Z"/><path class="cls-2" d="M179.74,85.5l-1.13-1.23V82.93h8.26l1,1.12V85.5Zm6.67,11.58-1.1-1.2V87.42h-4.12v5h1l1.12,1.13v3.51h-3.62L178.61,96V86.55h8l1.27,1.3v9.23Zm-4.57-4h-.65v3.18h.65Z"/><path class="cls-2" d="M198.93,97l-1.24-1.2V87.31h-4.3v5.61h.68l.76.9V97h-2.68l-1.37-1.38V86.44h8l1.3,1.26v8.41h4.31V87.7h-1v-5h2.38l1,1.13v1.55h-2.28v1.12h1.3l1,1V97Zm-7.07-11.59-1-1.16V82.82h8.22l1.05,1.09v1.48ZM194,93.75h-.61v2.43H194Z"/><path class="cls-2" d="M207.5,99.44V101h.95L209.6,102v2h-3.76l-.76-1v-1.16h-5.36l-1.3-1.08v-2.1h6.66V98.2h2.42v.51h2.32v.73Zm-2.42,0H200.7v1.44h4.38Zm3.5,2.45H207.5v1.48h1.08Z"/><path class="cls-2" d="M200.37,81.23l-1-1.16V77.5h8.21l1.05,1.16v2.57Zm5.72-2.93h-4.27v2.2h4.27Z"/><path class="cls-2" d="M218.9,90.68V97H214l-1.2-1.13v-2.5l-.65,0v-1h2.11l1,1.13v2.68h1.23V90.79h-3.69l-1.12-1.13V82.93h8.11L221,84.05v3h-1.49l-1.12-1.15V85h-4v4.45h2.17v-1.7h3.41L221,88.8v1.88Zm.95-2.39h-.95V89.4h.95Z"/><path class="cls-2" d="M220.82,102.91l-1-.15-1.3-.68-.62.86-1.44,1h-2.79l-1-1.81.43-1.67,4.42-1.63,2.31-.61h2.1v3.4Zm-.3-4-5.34,1.84a1.05,1.05,0,0,0-.87,1c.07.37.32.54.79.54a2.93,2.93,0,0,0,1.48-.61l1.53-1.41a2,2,0,0,0,.61.65l1,.57.82-.61Z"/><path class="cls-2" d="M79.79,42.87A12.75,12.75,0,0,0,75,38.48,13.59,13.59,0,0,0,68.88,37h-.07a13.64,13.64,0,0,0-6.94,2l0,0a10.84,10.84,0,0,0-2.26,1.9,9.71,9.71,0,0,0-2.28-1.86,13.5,13.5,0,0,0-7-1.9h-.08a14.72,14.72,0,0,0-5.91,1.35,12.1,12.1,0,0,0-4.84,4.21,12.72,12.72,0,0,0-1.6,3.19l0,0v0a13.36,13.36,0,0,0-.46,3.57v24h6.94V50.35a8.16,8.16,0,0,1,.94-3.55v0l0,0a5.58,5.58,0,0,1,2.15-2.09A5.76,5.76,0,0,1,50.21,44a5.71,5.71,0,0,1,5.16,2.9l0,0a6.34,6.34,0,0,1,.81,3.31V73.57h6.94V50a7.42,7.42,0,0,1,.22-1.71,6.81,6.81,0,0,1,.65-1.4l0,0,0,0a4.84,4.84,0,0,1,2-2l0,0a6.32,6.32,0,0,1,2.9-.7,6.16,6.16,0,0,1,2.78.63l0,0,0,0a4.77,4.77,0,0,1,2.05,1.95l0,0,0,0a4.48,4.48,0,0,1,.66,1.29,7.09,7.09,0,0,1,.25,1.77V73.57H81.8V50a12.55,12.55,0,0,0-.59-3.85A10.87,10.87,0,0,0,79.79,42.87Zm1.4,3.18s0,.05,0,.07a.36.36,0,0,1,0,.1Zm31.61-6.4h0s0,0,0,0Zm-4.68-1.86h.12ZM115,56.24a7.75,7.75,0,0,1-.36,2.67l0,.05v0a17.89,17.89,0,0,1-1.38,2.92,11,11,0,0,1-4.09,4l0,0A9,9,0,0,1,106.41,67h-.08a11.15,11.15,0,0,1-3,.42l-2.55-.38a12.59,12.59,0,0,1-5-2.65.46.46,0,0,0-.07-.07c.19-.14,24.54-16.63,24.54-16.63l-1-1.78a15.91,15.91,0,0,0-6.5-6.28,16.47,16.47,0,0,0-4.65-1.86,18.45,18.45,0,0,0-5-.63A17.14,17.14,0,0,0,94,39.75a19,19,0,0,0-6.47,6.68,20.89,20.89,0,0,0-2,4.39l0,0v0a16.94,16.94,0,0,0-.66,4.7,15.54,15.54,0,0,0,.68,5A19.87,19.87,0,0,0,94.31,71.7l0,0a19.7,19.7,0,0,0,18.14.27,17.08,17.08,0,0,0,6.76-6.17,14,14,0,0,0,2.11-4.68.53.53,0,0,1,0,.18l0-.18h0a16.17,16.17,0,0,0,.68-4.9V54h-7ZM92.38,58.19a10.14,10.14,0,0,1-.3-2.38c0-.23.11-1.18.11-1.18s.08-.77.11-1.1a12.13,12.13,0,0,1,2.35-5.3l0,0a9.53,9.53,0,0,1,3.81-3.08l.07,0a10.53,10.53,0,0,1,4.73-1h.07a12,12,0,0,1,5,1l0,0,0,0a8.44,8.44,0,0,1,1.68.92ZM87.52,46.45s0,0,0,0a0,0,0,0,1,0,0Zm-2,14.15v0a.05.05,0,0,1,0,0Zm18.19,13.47h0ZM87.56,65s0,0,0-.06h0Zm31.7.82s0,0,0,0l0,0Zm12.88-36.62h-7.06v33c0,3.57,1.06,6.41,3.14,8.41a10.71,10.71,0,0,0,7.64,3h7.34v-7l-6.24.19h-.37a6.15,6.15,0,0,1-1.49-.19l-.28-.12-.29,0a2.63,2.63,0,0,1-1.12-.54l-.12-.08,0,0c-.61-.36-1-1.27-1.11-2.67V44.59H143.2v-6.8H132.14Zm20.05-4.85a11.91,11.91,0,0,0-4.81,4.29,11.07,11.07,0,0,0-1.64,6.13V73.57h7v-29h12.88v-6.8H152.79v-1.6a7,7,0,0,1,1.38-4.72,6.46,6.46,0,0,1,1.77-1.38,5.3,5.3,0,0,1,2.34-.45h7.39v-6.8H159.1A15.18,15.18,0,0,0,152.19,24.33Zm85.89,23.53s0,0,0,0l0,.07Zm-1.62-3.7A13.75,13.75,0,0,0,231,39l-.05,0a15.25,15.25,0,0,0-7.56-1.75h0a17.51,17.51,0,0,0-4.49.72l-.08,0-.07,0a13.29,13.29,0,0,0-3.77,2,13.82,13.82,0,0,0-4.5,5.88,15.87,15.87,0,0,0-1.29,6V73.57h7V52a8,8,0,0,1,1.09-4,7.85,7.85,0,0,1,2.82-3l0,0a6.41,6.41,0,0,1,3.55-1h.13a7.23,7.23,0,0,1,4.37,1.32,8,8,0,0,1,2.59,3.23v0a10.23,10.23,0,0,1,.84,4v21h7.06V52.16a16.09,16.09,0,0,0-.58-4.26A11.4,11.4,0,0,0,236.46,44.16ZM214.87,40s0,0,0,0l0,0Zm21.54,4a.73.73,0,0,0,.05.09s0,0,0,0Zm23.43,30h0Zm9-34.42h0l0,0Zm-4.68-1.86h.12Zm11.14,28s0,0,0,0l0,0ZM271.07,54v2.23a7.75,7.75,0,0,1-.36,2.67V59l0,0a17.89,17.89,0,0,1-1.38,2.92,11,11,0,0,1-4.09,4l0,0A9.18,9.18,0,0,1,262.49,67h-.09a11.09,11.09,0,0,1-3,.42l-2.55-.38a12.59,12.59,0,0,1-5-2.65l-.07-.07c.19-.14,24.54-16.63,24.54-16.63l-1-1.78a16,16,0,0,0-6.5-6.28,16.29,16.29,0,0,0-4.66-1.86,18.27,18.27,0,0,0-4.95-.63,17.17,17.17,0,0,0-9.22,2.58,19.08,19.08,0,0,0-6.47,6.68,20.89,20.89,0,0,0-2,4.39v.09a17.32,17.32,0,0,0-.66,4.7,15.54,15.54,0,0,0,.68,5,18,18,0,0,0,2,4.34,18.26,18.26,0,0,0,6.79,6.78l0,0a19.72,19.72,0,0,0,18.15.27,17,17,0,0,0,6.74-6.17,14,14,0,0,0,2.1-4.57,16.27,16.27,0,0,0,.71-5V54Zm-22.62,4.18a10.66,10.66,0,0,1-.29-2.38c0-.23.1-1.18.1-1.18s.08-.77.11-1.1a11.91,11.91,0,0,1,2.36-5.3l0,0a9.46,9.46,0,0,1,3.81-3.08l.06,0a10.56,10.56,0,0,1,4.73-1h.07a12,12,0,0,1,5,1l0,0,0,0a8.17,8.17,0,0,1,1.68.92ZM243.64,65a.13.13,0,0,1,0-.06h0Zm0-18.53v0l0,0Zm-2,14.15v0s0,0,0,0Z"/><path class="cls-3" d="M185.85,33.82A21.68,21.68,0,1,1,164.16,55.5,21.68,21.68,0,0,1,185.85,33.82Z"/><path class="cls-4" d="M173.49,55.64c11,6.29,27.49.82,32-.87a19.65,19.65,0,0,0-38.74-3.89c20.89-7.76,31.47,4.48,31.47,4.48-11-6.29-27.54-.8-32,.88A19.66,19.66,0,0,0,205,60.12C184.07,67.87,173.49,55.64,173.49,55.64Z"/><path class="cls-5" d="M201.44,49.56c0,6.65-7,12-15.6,12s-15.6-5.4-15.6-12,7-12.05,15.6-12.05S201.44,42.9,201.44,49.56Z"/><path class="cls-6" d="M205,60.12a1.11,1.11,0,0,1-.22.07,19.73,19.73,0,0,1-38.5-4h0a19.65,19.65,0,0,0,39,2.82C205.11,59.42,205,59.78,205,60.12Z"/><path class="cls-2" d="M198.21,55.36s-10.58-12.24-31.47-4.48a19.55,19.55,0,0,0-.56,4.62c0,.25,0,.49,0,.74C170.67,54.56,187.22,49.07,198.21,55.36Z"/><path class="cls-2" d="M205.48,54.77c-4.5,1.69-21,7.16-32,.87,0,0,10.58,12.23,31.47,4.48a19.8,19.8,0,0,0,.55-4.58C205.51,55.29,205.5,55,205.48,54.77Z"/><path class="cls-7" d="M205.48,54.77A64.6,64.6,0,0,1,198.07,57a17.51,17.51,0,0,1-12.23,4.58,20,20,0,0,1-2.59-.17c5.19,1.62,12.42,2.13,21.71-1.32a19.8,19.8,0,0,0,.55-4.58C205.51,55.29,205.5,55,205.48,54.77Z"/></g></g></svg>