<svg xmlns="http://www.w3.org/2000/svg" viewBox="0 0 12.03 14.87"><defs><style>.cls-1{fill:#fff;}</style></defs><title>Asset 1logo</title><g id="Layer_2" data-name="Layer 2"><g id="Layer_1-2" data-name="Layer 1"><circle class="cls-1" cx="6.01" cy="6" r="1.87"/><path class="cls-1" d="M11,2.59A5.91,5.91,0,0,0,6,0,5.89,5.89,0,0,0,1.08,2.59a6,6,0,0,0-.7,5.53,5,5,0,0,0,.87,1.44l4.37,5.12a.51.51,0,0,0,.79,0l4.37-5.12a5,5,0,0,0,.87-1.44A6,6,0,0,0,11,2.59ZM6,9.44A3.44,3.44,0,1,1,9.45,6,3.45,3.45,0,0,1,6,9.44Z"/></g></g></svg>