<svg xmlns="http://www.w3.org/2000/svg" viewBox="0 0 31.61 31.61"><defs><style>.cls-1{fill:#fff;}</style></defs><title>Asset 2logo</title><g id="Layer_2" data-name="Layer 2"><g id="Layer_1-2" data-name="Layer 1"><path class="cls-1" d="M19.78,12.79a5.64,5.64,0,0,0-1.18-3,7.56,7.56,0,0,0-8.26-2.42,6.39,6.39,0,0,0-4.51,4.4,5.77,5.77,0,0,0,2.52,6.49.65.65,0,0,1,.29.85c-.16.52-.25,1.06-.38,1.68.74-.46,1.38-.88,2-1.26a1.34,1.34,0,0,1,.72-.12c.67.06,1.35.16,2.09.25a5.8,5.8,0,0,1,1.8-4.91A7.3,7.3,0,0,1,19.78,12.79Zm-9.61.05a.85.85,0,1,1,.05-1.69.85.85,0,1,1-.05,1.69Zm5.44-1.69a.85.85,0,1,1,0,1.69.85.85,0,0,1-.88-.83A.87.87,0,0,1,15.61,11.15Z"/><path class="cls-1" d="M24.9,15.78a6.59,6.59,0,0,0-8.52-1.27,5,5,0,0,0-.79,8.11,6.05,6.05,0,0,0,4.9,1.6,9.27,9.27,0,0,1,1.81-.34,6.28,6.28,0,0,1,1.74.73,2,2,0,0,0-.12-.45c-.37-.68-.16-1.11.42-1.63A4.84,4.84,0,0,0,24.9,15.78ZM17.21,18a.71.71,0,0,1-.71-.68.71.71,0,1,1,.71.68Zm4.39,0a.69.69,0,0,1-.69-.73.71.71,0,0,1,.7-.68.7.7,0,0,1,.69.74A.68.68,0,0,1,21.6,18Z"/><path class="cls-1" d="M15.8,31.61a15.81,15.81,0,1,1,15.81-15.8A15.82,15.82,0,0,1,15.8,31.61Zm0-30.38A14.58,14.58,0,1,0,30.38,15.81,14.59,14.59,0,0,0,15.8,1.23Z"/></g></g></svg>