<svg width="16" height="16" viewBox="0 0 16 16" fill="none" xmlns="http://www.w3.org/2000/svg">
<path d="M13.0887 5.33132C13.0973 5.44799 13.0973 5.56399 13.0973 5.67999C13.0973 9.22999 10.3953 13.3207 5.45734 13.3207C3.936 13.3207 2.52267 12.88 1.33334 12.1147C1.54934 12.1393 1.75734 12.148 1.982 12.148C3.19066 12.1509 4.3651 11.7467 5.316 11.0007C4.75562 10.9905 4.21239 10.8056 3.76216 10.4718C3.31194 10.138 2.97719 9.67192 2.80467 9.13866C2.97067 9.16332 3.13734 9.17999 3.312 9.17999C3.55267 9.17999 3.79467 9.14666 4.01934 9.08866C3.41118 8.96586 2.86432 8.63622 2.47175 8.15578C2.07918 7.67534 1.86513 7.07375 1.866 6.45332V6.41999C2.224 6.61932 2.63934 6.74399 3.07934 6.76066C2.71073 6.51571 2.40848 6.18334 2.19956 5.79318C1.99064 5.40303 1.88154 4.96723 1.882 4.52466C1.882 4.02599 2.01467 3.56866 2.24734 3.16999C2.92209 4 3.76367 4.67903 4.71756 5.16309C5.67145 5.64716 6.71638 5.92547 7.78467 5.97999C7.74334 5.77999 7.718 5.57266 7.718 5.36466C7.71783 5.01196 7.78717 4.66269 7.92205 4.33682C8.05694 4.01094 8.25474 3.71484 8.50413 3.46545C8.75352 3.21606 9.04962 3.01826 9.3755 2.88337C9.70138 2.74849 10.0506 2.67915 10.4033 2.67932C11.1767 2.67932 11.8747 3.00332 12.3653 3.52732C12.9665 3.41107 13.543 3.1916 14.0693 2.87865C13.8689 3.4992 13.4492 4.02539 12.8887 4.35866C13.4219 4.29784 13.943 4.15762 14.4347 3.94266C14.0674 4.47805 13.6124 4.94755 13.0887 5.33132Z" fill="#EB2227"/>
</svg>
