<?xml version="1.0" encoding="utf-8"?>
<!-- Generator: Adobe Illustrator 22.0.1, SVG Export Plug-In . SVG Version: 6.00 Build 0)  -->
<svg version="1.1" id="Layer_1" xmlns="http://www.w3.org/2000/svg" xmlns:xlink="http://www.w3.org/1999/xlink" x="0px" y="0px"
	 viewBox="0 0 28.5 27.3" style="enable-background:new 0 0 28.5 27.3;" xml:space="preserve">
<style type="text/css">
	.st0{fill:#0c807f;}
	.st1{display:none;fill:#0c807f;}
</style>
<title>Asset 62</title>
<g id="Layer_2_1_">
	<g id="Layer_1-2">
		<path class="st0" d="M22.2,21.5c-0.1-0.4-0.5-0.7-0.8-0.9c-0.9-0.3-4.7-1.4-4.7-1.4c-0.6-0.2-1.2,0-1.7,0.3L13.6,21l0,0
			c-0.3,0.3-0.7,0.3-1.1,0.1c-1.3-0.9-2.6-2-3.7-3.1c-1-1-1.9-2.2-2.7-3.4C6,14.2,6,13.8,6.3,13.5l0,0l1.4-1.4
			C8,11.7,8.2,11.1,8,10.5c0,0-1-3.8-1.3-4.7C6.6,5.4,6.3,5.1,5.9,4.9c-0.3-0.1-0.7-0.2-1-0.2H4.2c-0.3,0-0.7,0.1-1,0.2
			C3.1,5,0.9,6.2,0.4,7.5C0.1,8.4,0,9.2,0,10.1c0,1.8,0.5,3.6,1.2,5.2c1.2,2.3,2.9,4.5,4.8,6.3c1.7,1.7,3.6,3.2,5.7,4.4
			c1.6,0.8,3.4,1.2,5.2,1.3c0.9,0,1.8-0.1,2.6-0.4c1.3-0.5,2.6-2.6,2.6-2.7c0.2-0.3,0.2-0.7,0.2-1v-0.7
			C22.4,22.2,22.3,21.9,22.2,21.5z"/>
		<path class="st1" d="M27.4,15c-0.5,0-0.9-0.3-1-0.8c-1.1-4.4-4-8.1-8-10.2c-1.8-0.9-3.7-1.6-5.7-1.8c-0.6-0.1-1-0.6-0.9-1.2
			c0.1-0.6,0.6-1,1.1-0.9c2.3,0.3,4.5,1,6.5,2.1c2,1,3.7,2.4,5.2,4.1c1.8,2.1,3.2,4.7,3.9,7.4c0.2,0.6-0.2,1.2-0.8,1.4
			C27.6,15,27.5,15,27.4,15z"/>
		<path class="st1" d="M22.8,15.3c-0.5,0-0.9-0.3-1.1-0.8c-0.7-2.8-2.6-5.2-5.1-6.5c-1.1-0.6-2.4-1-3.6-1.2c-0.6,0-1-0.6-1-1.2
			s0.6-1,1.2-1c1.6,0.2,3.1,0.7,4.5,1.4c1.3,0.7,2.6,1.7,3.6,2.8c1.3,1.5,2.2,3.2,2.7,5.1c0.2,0.6-0.2,1.2-0.8,1.3c0,0,0,0,0,0
			C22.9,15.2,22.8,15.2,22.8,15.3z"/>
		<path class="st1" d="M18.4,15.8c-0.5,0-0.9-0.3-1.1-0.8c-0.6-2.1-2.3-3.7-4.5-4c-0.6,0-1.1-0.5-1.1-1.1c0-0.6,0.5-1.1,1.1-1.1
			c0.1,0,0.1,0,0.2,0c3.1,0.4,5.6,2.6,6.5,5.6c0.2,0.6-0.2,1.2-0.8,1.3C18.6,15.8,18.5,15.8,18.4,15.8z"/>
	</g>
</g>
</svg>
