<svg width="140" height="140" viewBox="0 0 140 140" fill="none" xmlns="http://www.w3.org/2000/svg">
<path d="M140 43.75C140 61.5563 126.612 76.3438 109.331 78.4875C107.931 78.6625 106.487 78.75 105 78.75C85.7063 78.75 70 63.0438 70 43.75C70 24.4563 85.7063 8.75 105 8.75C106.487 8.75 107.931 8.8375 109.331 9.0125C126.612 11.1562 140 25.9437 140 43.75Z" fill="#FFCB5A"/>
<path d="M70 43.75C70 63.0438 54.2938 78.75 35 78.75C33.5125 78.75 32.0688 78.6625 30.6688 78.4875C13.3875 76.3438 0 61.5563 0 43.75C0 25.9437 13.3875 11.1562 30.6688 9.0125C32.0688 8.8375 33.5125 8.75 35 8.75C54.2938 8.75 70 24.4563 70 43.75Z" fill="#FFCB5A"/>
<path d="M70 43.75C70 63.0438 54.2938 78.75 35 78.75C33.5125 78.75 32.0688 78.6625 30.6688 78.4875C22.4438 69.2563 17.5 57.0938 17.5 43.75C17.5 30.4062 22.4438 18.2437 30.6688 9.0125C32.0688 8.8375 33.5125 8.75 35 8.75C54.2938 8.75 70 24.4563 70 43.75Z" fill="#FBA61F"/>
<path d="M122.5 43.75C122.5 57.0938 117.556 69.2563 109.331 78.4875C107.931 78.6625 106.487 78.75 105 78.75C85.7063 78.75 70 63.0438 70 43.75C70 24.4563 85.7063 8.75 105 8.75C106.487 8.75 107.931 8.8375 109.331 9.0125C117.556 18.2437 122.5 30.4062 122.5 43.75Z" fill="#FBA61F"/>
<path d="M113.75 43.75C113.75 67.9137 94.1637 87.5 70 87.5C45.8363 87.5 26.25 67.9137 26.25 43.75C26.25 19.5863 45.8363 0 70 0C94.1637 0 113.75 19.5863 113.75 43.75Z" fill="#FFCB5A"/>
<path d="M140 140H0V96.25H45.5602L54.3102 105H85.6871L94.4371 96.25H140V140Z" fill="#FA3F44"/>
<path d="M70 30.625H83.125V21.875H74.375V13.125H65.625V22.6789C60.5473 24.4891 56.875 29.3016 56.875 34.9973C56.875 42.2324 62.7648 48.1223 70 48.1223C72.4117 48.1223 74.375 50.0828 74.375 52.4973C74.375 54.9117 72.4117 56.8723 70 56.8723H56.875V65.6223H65.625V74.3723H74.375V64.8156C79.4527 63.0055 83.125 58.193 83.125 52.4973C83.125 45.2594 77.2352 39.3723 70 39.3723C67.5883 39.3723 65.625 37.4117 65.625 34.9973C65.625 32.5855 67.5883 30.625 70 30.625Z" fill="white"/>
<path d="M140 131.25H0V140H140V131.25Z" fill="#E10F0F"/>
<path d="M17.5 105H8.75V113.75H17.5V105Z" fill="white"/>
<path d="M35 105H26.25V113.75H35V105Z" fill="white"/>
</svg>
