<svg xmlns="http://www.w3.org/2000/svg" xmlns:xlink="http://www.w3.org/1999/xlink" viewBox="0 0 81.5 18.4"><defs><style>.cls-1{fill:#fff;}.cls-2{fill:url(#radial-gradient);}.cls-3{fill:url(#linear-gradient);}.cls-4{fill:url(#linear-gradient-2);}.cls-5{fill:url(#linear-gradient-3);}.cls-6{fill:url(#radial-gradient-2);}</style><radialGradient id="radial-gradient" cx="98.96" cy="-23.89" r="7.6" gradientTransform="translate(-45.31 34.14) scale(0.97 0.97)" gradientUnits="userSpaceOnUse"><stop offset="0" stop-color="#931d20"/><stop offset="0.75" stop-color="#e72429"/><stop offset="0.83" stop-color="#f0777b"/><stop offset="0.91" stop-color="#f8c0c2"/><stop offset="0.97" stop-color="#fdeeee"/><stop offset="1" stop-color="#fff"/></radialGradient><linearGradient id="linear-gradient" x1="-254.62" y1="879.43" x2="-254.14" y2="879.43" gradientTransform="matrix(0, -28, -28, 0, 24674.25, -7111.52)" gradientUnits="userSpaceOnUse"><stop offset="0" stop-color="#ef6724"/><stop offset="0.5" stop-color="#e72429"/><stop offset="1" stop-color="#a31e23"/></linearGradient><linearGradient id="linear-gradient-2" x1="-289.31" y1="906.4" x2="-288.8" y2="906.4" gradientTransform="matrix(0, 16, 16, 0, -14452.13, 4633.9)" gradientUnits="userSpaceOnUse"><stop offset="0" stop-color="#f39479"/><stop offset="1" stop-color="#de2128"/></linearGradient><linearGradient id="linear-gradient-3" x1="43.61" y1="14.51" x2="56.92" y2="14.51" gradientTransform="matrix(1, 0, 0, 1, 0, 0)" xlink:href="#linear-gradient"/><radialGradient id="radial-gradient-2" cx="52.08" cy="12.45" r="4.78" gradientUnits="userSpaceOnUse"><stop offset="0" stop-color="#fff"/><stop offset="0.21" stop-color="#f7f7f7"/><stop offset="0.53" stop-color="#e2e2e2"/><stop offset="0.92" stop-color="silver"/><stop offset="1" stop-color="#b8b8b8"/></radialGradient></defs><title>Asset 4logo</title><g id="Layer_2" data-name="Layer 2"><g id="Layer_1-2" data-name="Layer 1"><path class="cls-1" d="M14.35,6.78A4.33,4.33,0,0,0,12.73,5.3a4.57,4.57,0,0,0-2.07-.49h0a4.63,4.63,0,0,0-2.35.66h0a3.49,3.49,0,0,0-.77.65,3.2,3.2,0,0,0-.77-.64,4.61,4.61,0,0,0-2.35-.64h0a5,5,0,0,0-2,.46A4.1,4.1,0,0,0,.71,6.74,4,4,0,0,0,.17,7.82h0v0A4.17,4.17,0,0,0,0,9.06v8.12H2.35V9.32a2.69,2.69,0,0,1,.32-1.21h0v0a1.88,1.88,0,0,1,.73-.7,1.91,1.91,0,0,1,.92-.24,1.89,1.89,0,0,1,1,.24,1.84,1.84,0,0,1,.74.75h0a2.16,2.16,0,0,1,.27,1.12v7.91H8.71v-8a2.59,2.59,0,0,1,.08-.58A1.88,1.88,0,0,1,9,8.14H9v0a1.8,1.8,0,0,1,.68-.67h0a2.07,2.07,0,0,1,1-.24,2.19,2.19,0,0,1,.94.21h0a1.61,1.61,0,0,1,.7.66h0a1.22,1.22,0,0,1,.23.44,2.23,2.23,0,0,1,.09.59v8H15v-8a4.33,4.33,0,0,0-.2-1.31A3.78,3.78,0,0,0,14.35,6.78Zm.47,1.08v0s0,0,0,0ZM25.53,5.69h0Zm-1.59-.63h0Zm2.33,6.25a2.74,2.74,0,0,1-.12.91h0a5.55,5.55,0,0,1-.47,1,3.63,3.63,0,0,1-1.38,1.34h0a2.89,2.89,0,0,1-.91.38h0a3.87,3.87,0,0,1-1,.15L21.46,15a4.42,4.42,0,0,1-1.68-.9l0,0,8.3-5.62-.32-.61a5.43,5.43,0,0,0-2.2-2.12A5.5,5.5,0,0,0,24,5.07a5.94,5.94,0,0,0-1.68-.22,5.8,5.8,0,0,0-3.12.88A6.41,6.41,0,0,0,17,8a6.56,6.56,0,0,0-.66,1.49h0v0a5.65,5.65,0,0,0-.22,1.59,5.13,5.13,0,0,0,.23,1.68A5.94,5.94,0,0,0,17,14.25a6.09,6.09,0,0,0,2.3,2.29h0a6.29,6.29,0,0,0,3.18.8,6.22,6.22,0,0,0,3-.71,5.69,5.69,0,0,0,2.29-2.09A4.79,4.79,0,0,0,28.43,13s0,0,0,.06l0-.06h0a5.79,5.79,0,0,0,.23-1.66v-.76H26.27ZM18.61,12a3.9,3.9,0,0,1-.1-.81c0-.07,0-.39,0-.39s0-.27,0-.38a4,4,0,0,1,.79-1.79h0a3.2,3.2,0,0,1,1.29-1h0a3.45,3.45,0,0,1,1.6-.34h0A4.26,4.26,0,0,1,24,7.55h0a2.8,2.8,0,0,1,.57.31ZM17,8h0Zm-.66,4.79h0Zm6.16,4.56h0ZM17,14.27v0h0Zm10.73.28Zm4.36-12.4H29.69V13.31a3.77,3.77,0,0,0,1.06,2.85,3.63,3.63,0,0,0,2.59,1h2.48V14.81l-2.11.06h-.13a1.85,1.85,0,0,1-.5-.07l-.1,0-.1,0a.85.85,0,0,1-.38-.18l0,0h0c-.21-.12-.33-.43-.38-.9V7.37h3.75V5.06H32.07ZM38.86.51A3.91,3.91,0,0,0,37.24,2,3.73,3.73,0,0,0,36.68,4V17.18h2.39V7.37h4.36V5.06H39.07V4.52a2.39,2.39,0,0,1,.46-1.6,2.41,2.41,0,0,1,.6-.46,1.68,1.68,0,0,1,.79-.16h2.51V0H41.2A5.13,5.13,0,0,0,38.86.51ZM68,8.47v0ZM67.4,7.22a4.65,4.65,0,0,0-1.86-1.76h0A5.24,5.24,0,0,0,63,4.85h0a6.27,6.27,0,0,0-1.52.25h0a4.38,4.38,0,0,0-1.28.7,4.64,4.64,0,0,0-1.53,2,5.48,5.48,0,0,0-.43,2v7.36h2.39V9.89a2.63,2.63,0,0,1,.37-1.36,2.6,2.6,0,0,1,1-1h0a2.17,2.17,0,0,1,1.21-.35h0a2.47,2.47,0,0,1,1.48.45,2.59,2.59,0,0,1,.87,1.09h0a3.42,3.42,0,0,1,.28,1.36v7.12h2.39V9.93A5.32,5.32,0,0,0,68,8.49,4.05,4.05,0,0,0,67.4,7.22Zm-7.31-1.4h0Zm7.29,1.37,0,0h0Zm7.93,10.16h0ZM78.37,5.69h0Zm-1.59-.63h0Zm3.78,9.49h0Zm-1.44-4v.76a2.7,2.7,0,0,1-.13.91h0a5.49,5.49,0,0,1-.46,1,3.73,3.73,0,0,1-1.39,1.34h0a3,3,0,0,1-.91.38h0a3.86,3.86,0,0,1-1,.15L74.3,15a4.42,4.42,0,0,1-1.68-.9l0,0,8.31-5.62-.33-.61a5.37,5.37,0,0,0-2.2-2.12,5.39,5.39,0,0,0-1.58-.63A6.12,6.12,0,0,0,72,5.73,6.33,6.33,0,0,0,69.82,8a6.62,6.62,0,0,0-.67,1.49h0v0a6,6,0,0,0-.22,1.59,5.41,5.41,0,0,0,.23,1.68,6,6,0,0,0,.67,1.47,6,6,0,0,0,2.29,2.29h0a6.65,6.65,0,0,0,6.15.09,5.73,5.73,0,0,0,2.28-2.09A4.62,4.62,0,0,0,81.26,13a5.35,5.35,0,0,0,.24-1.69v-.76ZM71.46,12a3.32,3.32,0,0,1-.1-.81c0-.07,0-.39,0-.39s0-.27,0-.38a4,4,0,0,1,.8-1.79h0a3.26,3.26,0,0,1,1.29-1h0a3.49,3.49,0,0,1,1.61-.34h0a4.23,4.23,0,0,1,1.69.35h0a3.09,3.09,0,0,1,.57.31Zm-1.63,2.3v0h0Zm0-6.27h0Zm-.66,4.79h0Z"/><path class="cls-2" d="M50.26,3.72a7.34,7.34,0,1,1-7.34,7.34A7.34,7.34,0,0,1,50.26,3.72Z"/><path class="cls-3" d="M46.08,11.11c3.71,2.13,9.3.28,10.83-.3A6.65,6.65,0,0,0,43.79,9.5C50.86,6.87,54.44,11,54.44,11c-3.72-2.13-9.32-.27-10.83.3a6.66,6.66,0,0,0,13.12,1.32C49.66,15.25,46.08,11.11,46.08,11.11Z"/><path class="cls-4" d="M55.54,9.05c0,2.25-2.37,4.08-5.28,4.08S45,11.3,45,9.05,47.34,5,50.26,5,55.54,6.79,55.54,9.05Z"/><path class="cls-5" d="M56.73,12.63l-.07,0a6.68,6.68,0,0,1-13-1.34h0a6.65,6.65,0,0,0,13.19.95C56.78,12.39,56.76,12.51,56.73,12.63Z"/><path class="cls-1" d="M54.44,11S50.86,6.87,43.79,9.5a6.66,6.66,0,0,0-.19,1.56,2.09,2.09,0,0,0,0,.25C45.12,10.74,50.72,8.88,54.44,11Z"/><path class="cls-1" d="M56.91,10.81c-1.53.58-7.12,2.43-10.83.3,0,0,3.58,4.14,10.65,1.52a6.73,6.73,0,0,0,.19-1.56C56.92,11,56.91,10.89,56.91,10.81Z"/><path class="cls-6" d="M56.91,10.81a20.56,20.56,0,0,1-2.51.77,5.92,5.92,0,0,1-4.14,1.55,6.4,6.4,0,0,1-.88-.06,11.19,11.19,0,0,0,7.35-.44,6.73,6.73,0,0,0,.19-1.56C56.92,11,56.91,10.89,56.91,10.81Z"/></g></g></svg>