<svg xmlns="http://www.w3.org/2000/svg" xmlns:xlink="http://www.w3.org/1999/xlink" viewBox="0 0 313.62 109.46"><defs><style>.cls-1{fill:#ec2227;}.cls-2{fill:#fff;}.cls-3{fill:url(#radial-gradient);}.cls-4{fill:url(#linear-gradient);}.cls-5{fill:url(#linear-gradient-2);}.cls-6{fill:url(#linear-gradient-3);}.cls-7{fill:url(#radial-gradient-2);}</style><radialGradient id="radial-gradient" cx="17.25" cy="-200.89" r="22.35" gradientTransform="translate(168.11 248.76) scale(0.97 0.97)" gradientUnits="userSpaceOnUse"><stop offset="0" stop-color="#971d20"/><stop offset="0.75" stop-color="#eb2227"/><stop offset="0.83" stop-color="#f3777a"/><stop offset="0.91" stop-color="#f9c0c2"/><stop offset="0.97" stop-color="#fdeeee"/><stop offset="1" stop-color="#fff"/></radialGradient><linearGradient id="linear-gradient" x1="6189.63" y1="7372.31" x2="6191.03" y2="7372.31" gradientTransform="matrix(0, -28, -28, 0, 206609.43, 173383.97)" gradientUnits="userSpaceOnUse"><stop offset="0" stop-color="#f06724"/><stop offset="0.5" stop-color="#eb2227"/><stop offset="1" stop-color="#a51e22"/></linearGradient><linearGradient id="linear-gradient-2" x1="5542.61" y1="6801.39" x2="5544.11" y2="6801.39" gradientTransform="matrix(0, 16, 16, 0, -108637.44, -88644.93)" gradientUnits="userSpaceOnUse"><stop offset="0" stop-color="#f5967a"/><stop offset="1" stop-color="#e01f26"/></linearGradient><linearGradient id="linear-gradient-3" x1="165.2" y1="64.88" x2="204.35" y2="64.88" gradientTransform="matrix(1, 0, 0, 1, 0, 0)" xlink:href="#linear-gradient"/><radialGradient id="radial-gradient-2" cx="190.13" cy="58.81" r="14.05" gradientUnits="userSpaceOnUse"><stop offset="0" stop-color="#fff"/><stop offset="0.21" stop-color="#f7f7f7"/><stop offset="0.53" stop-color="#e2e2e2"/><stop offset="0.92" stop-color="silver"/><stop offset="1" stop-color="#b8b8b8"/></radialGradient></defs><title>Asset 32</title><g id="Layer_2" data-name="Layer 2"><g id="Layer_1-2" data-name="Layer 1"><path class="cls-1" d="M276.88,109.46H36.74A36.74,36.74,0,0,1,0,72.72V0H313.62V72.72A36.74,36.74,0,0,1,276.88,109.46Z"/><g id="_Group_" data-name="&lt;Group&gt;"><g id="_Group_2" data-name="&lt;Group&gt;"><g id="_Group_3" data-name="&lt;Group&gt;"><path id="_Compound_Path_" data-name="&lt;Compound Path&gt;" class="cls-2" d="M79.18,42.17a12.56,12.56,0,0,0-4.77-4.37,13.34,13.34,0,0,0-6.09-1.44h-.07a13.65,13.65,0,0,0-6.91,2l-.05,0A10.74,10.74,0,0,0,59,40.23a10.12,10.12,0,0,0-2.27-1.86,13.57,13.57,0,0,0-6.91-1.89h-.09a14.74,14.74,0,0,0-5.88,1.35A12.13,12.13,0,0,0,39.07,42a12.46,12.46,0,0,0-1.59,3.18l0,0v0A13.23,13.23,0,0,0,37,48.85V72.72H43.9V49.61a8.22,8.22,0,0,1,.93-3.53v0l0,0a5.6,5.6,0,0,1,4.86-2.77,5.53,5.53,0,0,1,3,.71,5.44,5.44,0,0,1,2.18,2.18v0a6.15,6.15,0,0,1,.82,3.29V72.72h6.9V49.23a6.83,6.83,0,0,1,.23-1.7,6.49,6.49,0,0,1,.64-1.39l0,0,0,0a4.88,4.88,0,0,1,2-2l0,0a6.41,6.41,0,0,1,2.89-.7A6.08,6.08,0,0,1,71.2,44l0,0,0,0a4.78,4.78,0,0,1,2,1.94l0,0,0,0A4.59,4.59,0,0,1,74,47.34a7.51,7.51,0,0,1,.25,1.76V72.72h6.89V49.23a12.38,12.38,0,0,0-.59-3.83A10.49,10.49,0,0,0,79.18,42.17Zm1.39,3.15s0,.06,0,.08a.37.37,0,0,1,0,.09ZM112.05,39h0Zm-4.67-1.86.06,0h.06Zm6.85,18.38a7.8,7.8,0,0,1-.35,2.66l0,0,0,0a17.56,17.56,0,0,1-1.37,2.89,10.88,10.88,0,0,1-4.07,4l-.05,0a9.23,9.23,0,0,1-2.66,1.13h-.09a11,11,0,0,1-3,.41l-2.54-.38a12.37,12.37,0,0,1-4.93-2.64.46.46,0,0,1-.07-.07L119.51,47l-1-1.78A15.85,15.85,0,0,0,112.07,39a16.21,16.21,0,0,0-4.63-1.85,18.24,18.24,0,0,0-4.94-.64,17.09,17.09,0,0,0-9.17,2.58,18.75,18.75,0,0,0-6.44,6.65,20,20,0,0,0-2,4.37l0,0v.05a17.17,17.17,0,0,0-.65,4.68,15.69,15.69,0,0,0,.67,4.94,18.47,18.47,0,0,0,1.95,4.32,18,18,0,0,0,6.76,6.75l0,0a19.71,19.71,0,0,0,18.07.27A17,17,0,0,0,118.46,65a13.83,13.83,0,0,0,2.11-4.66,1,1,0,0,1,0,.18l0-.18h0a16.29,16.29,0,0,0,.68-4.87V53.25h-7ZM91.72,57.41A10.09,10.09,0,0,1,91.41,55l.11-1.17s.09-.77.12-1.09A12,12,0,0,1,94,47.5l0,0a9.47,9.47,0,0,1,3.8-3.07l.06,0a10.22,10.22,0,0,1,4.71-1h.07a12,12,0,0,1,5,1l0,0,0,0a8.08,8.08,0,0,1,1.67.92ZM86.87,45.73s0,0,0,0a0,0,0,0,1,0,0ZM84.94,59.82s0,0,0,0,0,0,0,0Zm18.11,13.4h0Zm-16.13-9a.16.16,0,0,1,0-.07h0Zm31.55.81s0,0,0,0l0,0Zm12.82-36.46h-7V61.36c0,3.55,1,6.37,3.13,8.37a10.65,10.65,0,0,0,7.61,3h7.3v-7l-6.21.2-.37,0a5.29,5.29,0,0,1-1.49-.19l-.28-.11-.29,0a2.45,2.45,0,0,1-1.11-.53l-.11-.08,0,0c-.61-.36-1-1.26-1.11-2.66V43.87h11V37.11h-11Zm20-4.82A11.87,11.87,0,0,0,146.47,28a11.05,11.05,0,0,0-1.64,6.1V72.72h7V43.87h12.83V37.11H151.85v-1.6a7,7,0,0,1,1.38-4.7A6.23,6.23,0,0,1,155,29.44a5.21,5.21,0,0,1,2.32-.45h7.36V22.22h-6.54A15.05,15.05,0,0,0,151.26,23.71Zm85.51,23.42s0,0,0,0a.1.1,0,0,0,0,.07Zm-1.62-3.68a13.56,13.56,0,0,0-5.46-5.19l-.05,0a15.35,15.35,0,0,0-7.52-1.75h-.05a17.79,17.79,0,0,0-4.47.72l-.08,0-.06,0a12.74,12.74,0,0,0-3.76,2,13.63,13.63,0,0,0-4.48,5.85,15.71,15.71,0,0,0-1.28,6V72.72h7V51.28a8.64,8.64,0,0,1,3.9-7l0,0a6.37,6.37,0,0,1,3.53-1h.13a7.15,7.15,0,0,1,4.35,1.32,7.9,7.9,0,0,1,2.58,3.2v0a10.32,10.32,0,0,1,.84,4V72.72h7V51.41a16.29,16.29,0,0,0-.57-4.24A11.31,11.31,0,0,0,235.15,43.45Zm-21.49-4.13,0,0,0,0Zm21.44,4a.2.2,0,0,1,.05.09l0,0Zm23.33,29.86h0Zm9-34.26h.05Zm-4.66-1.86.06,0h.06ZM273.85,65s0,0,0,0a0,0,0,0,0,0,0Zm-4.24-11.74v2.23a7.77,7.77,0,0,1-.36,2.66v0l0,0a17.63,17.63,0,0,1-1.38,2.89,10.88,10.88,0,0,1-4.07,4l0,0a9.53,9.53,0,0,1-2.67,1.13H261a11,11,0,0,1-3,.41l-2.54-.38a12.41,12.41,0,0,1-4.94-2.64l-.07-.07L274.89,47l-1-1.78A15.82,15.82,0,0,0,267.45,39a16.21,16.21,0,0,0-4.63-1.85,18.21,18.21,0,0,0-4.93-.64,17.07,17.07,0,0,0-9.18,2.58,18.75,18.75,0,0,0-6.44,6.65,20,20,0,0,0-2,4.37l0,0v.05a17.17,17.17,0,0,0-.65,4.68,15.69,15.69,0,0,0,.67,4.94,17.71,17.71,0,0,0,2,4.32A17.93,17.93,0,0,0,249,70.86l0,0a19.71,19.71,0,0,0,18.07.27A16.91,16.91,0,0,0,273.83,65a13.82,13.82,0,0,0,2.1-4.55,16.43,16.43,0,0,0,.7-5V53.25Zm-22.52,4.16A11.19,11.19,0,0,1,246.8,55c0-.22.1-1.17.1-1.17s.08-.77.12-1.09a11.76,11.76,0,0,1,2.34-5.28l0,0a9.38,9.38,0,0,1,3.79-3.07l.06,0a10.19,10.19,0,0,1,4.71-1H258a12.08,12.08,0,0,1,5,1l0,0,0,0a7.83,7.83,0,0,1,1.67.92Zm-4.79,6.77a.15.15,0,0,1,0-.07s0,0,0,0Zm-.05-18.45,0,0s0,0,0,0Zm-1.93,14.09v0s0,0,0,0Z"/></g></g><g id="_Group_4" data-name="&lt;Group&gt;"><g id="_Group_5" data-name="&lt;Group&gt;"><path id="_Path_" data-name="&lt;Path&gt;" class="cls-3" d="M184.77,33.16a21.58,21.58,0,1,1-21.59,21.58A21.58,21.58,0,0,1,184.77,33.16Z"/></g><path id="_Path_2" data-name="&lt;Path&gt;" class="cls-4" d="M172.47,54.87c10.91,6.26,27.37.82,31.84-.86a19.56,19.56,0,0,0-38.57-3.87c20.8-7.73,31.33,4.45,31.33,4.45-10.94-6.26-27.41-.79-31.87.88a19.58,19.58,0,0,0,38.59,3.87C183,67.05,172.47,54.87,172.47,54.87Z"/><path id="_Path_3" data-name="&lt;Path&gt;" class="cls-5" d="M200.29,48.82c0,6.63-7,12-15.53,12s-15.53-5.37-15.53-12,7-12,15.53-12S200.29,42.2,200.29,48.82Z"/><path id="_Path_4" data-name="&lt;Path&gt;" class="cls-6" d="M203.79,59.34l-.21.07a19.65,19.65,0,0,1-38.34-3.95h0A19.57,19.57,0,0,0,204,58.28C203.94,58.64,203.87,59,203.79,59.34Z"/><path id="_Path_5" data-name="&lt;Path&gt;" class="cls-2" d="M197.07,54.59s-10.53-12.18-31.33-4.45a19.32,19.32,0,0,0-.56,4.6c0,.24,0,.49,0,.73C169.66,53.8,186.13,48.33,197.07,54.59Z"/><path id="_Path_6" data-name="&lt;Path&gt;" class="cls-2" d="M204.31,54c-4.47,1.68-20.93,7.12-31.84.86,0,0,10.52,12.18,31.32,4.47a19.72,19.72,0,0,0,.56-4.57C204.35,54.52,204.33,54.25,204.31,54Z"/><path id="_Path_7" data-name="&lt;Path&gt;" class="cls-7" d="M204.31,54a62.44,62.44,0,0,1-7.37,2.25,17.43,17.43,0,0,1-12.18,4.56,19.85,19.85,0,0,1-2.58-.17c5.17,1.61,12.37,2.12,21.61-1.31a19.72,19.72,0,0,0,.56-4.57C204.35,54.52,204.33,54.25,204.31,54Z"/></g></g></g></g></svg>